<svg width="31" height="32" viewBox="0 0 31 32" fill="none" xmlns="http://www.w3.org/2000/svg">
<path d="M8.99 0H22.01C26.97 0 31 4.10902 31 9.16628V22.4416C31 24.8726 30.0528 27.2041 28.3669 28.9231C26.6809 30.6421 24.3943 31.6079 22.01 31.6079H8.99C4.03 31.6079 0 27.4988 0 22.4416V9.16628C0 6.73523 0.947158 4.40375 2.63311 2.68474C4.31906 0.96573 6.6057 0 8.99 0ZM8.68 3.16079C7.20009 3.16079 5.7808 3.7602 4.73434 4.82718C3.68789 5.89415 3.1 7.34127 3.1 8.8502V22.7577C3.1 25.9026 5.5955 28.4471 8.68 28.4471H22.32C23.7999 28.4471 25.2192 27.8477 26.2657 26.7807C27.3121 25.7137 27.9 24.2666 27.9 22.7577V8.8502C27.9 5.70522 25.4045 3.16079 22.32 3.16079H8.68ZM23.6375 5.53137C24.1514 5.53137 24.6442 5.73951 25.0075 6.10998C25.3709 6.48046 25.575 6.98293 25.575 7.50687C25.575 8.0308 25.3709 8.53327 25.0075 8.90375C24.6442 9.27423 24.1514 9.48236 23.6375 9.48236C23.1236 9.48236 22.6308 9.27423 22.2675 8.90375C21.9041 8.53327 21.7 8.0308 21.7 7.50687C21.7 6.98293 21.9041 6.48046 22.2675 6.10998C22.6308 5.73951 23.1236 5.53137 23.6375 5.53137ZM15.5 7.90196C17.5554 7.90196 19.5267 8.73449 20.9801 10.2164C22.4335 11.6983 23.25 13.7082 23.25 15.8039C23.25 17.8997 22.4335 19.9096 20.9801 21.3915C19.5267 22.8734 17.5554 23.7059 15.5 23.7059C13.4446 23.7059 11.4733 22.8734 10.0199 21.3915C8.56652 19.9096 7.75 17.8997 7.75 15.8039C7.75 13.7082 8.56652 11.6983 10.0199 10.2164C11.4733 8.73449 13.4446 7.90196 15.5 7.90196ZM15.5 11.0627C14.2667 11.0627 13.084 11.5623 12.212 12.4514C11.3399 13.3406 10.85 14.5465 10.85 15.8039C10.85 17.0614 11.3399 18.2673 12.212 19.1564C13.084 20.0456 14.2667 20.5451 15.5 20.5451C16.7333 20.5451 17.916 20.0456 18.788 19.1564C19.6601 18.2673 20.15 17.0614 20.15 15.8039C20.15 14.5465 19.6601 13.3406 18.788 12.4514C17.916 11.5623 16.7333 11.0627 15.5 11.0627Z" fill="#EC7D15"/>
</svg>
