<svg width="34" height="31" viewBox="0 0 34 31" fill="none" xmlns="http://www.w3.org/2000/svg">
<path d="M34 3.54545C32.7486 4.16591 31.3996 4.57364 30.0019 4.76864C31.4321 3.82909 32.5373 2.34 33.0574 0.549545C31.7084 1.43591 30.2132 2.05636 28.6367 2.41091C27.3528 0.886364 25.5488 0 23.501 0C19.6816 0 16.5612 3.40364 16.5612 7.605C16.5612 8.20773 16.6262 8.79273 16.74 9.34227C10.9541 9.02318 5.8021 5.99182 2.37285 1.40045C1.77151 2.51727 1.43021 3.82909 1.43021 5.21182C1.43021 7.85318 2.64914 10.1932 4.53442 11.5227C3.3805 11.5227 2.30784 11.1682 1.3652 10.6364V10.6895C1.3652 14.3768 3.77055 17.4614 6.95602 18.1527C5.9333 18.458 4.85962 18.5005 3.81931 18.2768C4.26074 19.788 5.12525 21.1104 6.29133 22.0579C7.4574 23.0055 8.8664 23.5306 10.3203 23.5595C7.8558 25.6876 4.80095 26.8379 1.65774 26.8214C1.10516 26.8214 0.552581 26.7859 0 26.715C3.08795 28.8777 6.76099 30.1364 10.6941 30.1364C23.501 30.1364 30.5382 18.5427 30.5382 8.49136C30.5382 8.15454 30.5382 7.83545 30.522 7.49863C31.8872 6.435 33.0574 5.08773 34 3.54545Z" fill="#EC7D15"/>
</svg>
